# xmcd
#
# Track frame offsets:
# 150
# 20112
# 39885
# 57350
# 78368
# 98408
# 118360
# 136322
# 164502
# 189604
# 204621
# 224874
# 237537
# 265432
# 291137
# 325980
#
# Disc length: 4599 seconds
#
# Revision: 0
# Processed by: cddbd v1.5PL3 Copyright (c) Steve Scherf et al.
# Submitted via: Audion 3.0.2 (http://www.panic.com/audion/)
#
DISCID=fb11f510
DTITLE=Prince - Price More Hits
DYEAR=1900
DGENRE=
TTITLE0=This Feeling
TTITLE1=Baby I`m A Star
TTITLE2=Melt With You
TTITLE3=Blue Light
TTITLE4=The Most Beautiful Girl in the World
TTITLE5=Trust
TTITLE6=The Morning Paper
TTITLE7=Bat Dance
TTITLE8=Letigo
TTITLE9=And God Created Women
TTITLE10=Space
TTITLE11=It`s Courting Time
TTITLE12=Jam Of The Year
TTITLE13=In This Bed I Sleep
TTITLE14=Sleep Around
TTITLE15=Emancipation
EXTD=
EXTT0=
EXTT1=
EXTT2=
EXTT3=
EXTT4=
EXTT5=
EXTT6=
EXTT7=
EXTT8=
EXTT9=
EXTT10=
EXTT11=
EXTT12=
EXTT13=
EXTT14=
EXTT15=
PLAYORDER=
